<svg width="30" height="30" viewBox="0 0 30 30" fill="none" xmlns="http://www.w3.org/2000/svg">
<path d="M14.999 28.1229C23.75 28.1229 28.1229 22.2472 28.1229 14.999C28.1229 7.75079 23.75 1.875 14.999 1.875C6.2479 1.875 1.875 7.75079 1.875 14.999C1.875 22.2472 6.2479 28.1229 14.999 28.1229Z" fill="url(#paint0_radial_176_2503)"/>
<path d="M14.999 28.1229C23.75 28.1229 28.1229 22.2472 28.1229 14.999C28.1229 7.75079 23.75 1.875 14.999 1.875C6.2479 1.875 1.875 7.75079 1.875 14.999C1.875 22.2472 6.2479 28.1229 14.999 28.1229Z" fill="url(#paint1_radial_176_2503)"/>
<path d="M14.999 28.1229C23.75 28.1229 28.1229 22.2472 28.1229 14.999C28.1229 7.75079 23.75 1.875 14.999 1.875C6.2479 1.875 1.875 7.75079 1.875 14.999C1.875 22.2472 6.2479 28.1229 14.999 28.1229Z" fill="url(#paint2_radial_176_2503)"/>
<path d="M14.999 28.1229C23.75 28.1229 28.1229 22.2472 28.1229 14.999C28.1229 7.75079 23.75 1.875 14.999 1.875C6.2479 1.875 1.875 7.75079 1.875 14.999C1.875 22.2472 6.2479 28.1229 14.999 28.1229Z" fill="url(#paint3_radial_176_2503)" fill-opacity="0.6"/>
<path d="M14.999 28.1229C23.75 28.1229 28.1229 22.2472 28.1229 14.999C28.1229 7.75079 23.75 1.875 14.999 1.875C6.2479 1.875 1.875 7.75079 1.875 14.999C1.875 22.2472 6.2479 28.1229 14.999 28.1229Z" fill="url(#paint4_radial_176_2503)"/>
<path d="M14.999 28.1229C23.75 28.1229 28.1229 22.2472 28.1229 14.999C28.1229 7.75079 23.75 1.875 14.999 1.875C6.2479 1.875 1.875 7.75079 1.875 14.999C1.875 22.2472 6.2479 28.1229 14.999 28.1229Z" fill="url(#paint5_radial_176_2503)"/>
<path d="M14.999 28.1229C23.75 28.1229 28.1229 22.2472 28.1229 14.999C28.1229 7.75079 23.75 1.875 14.999 1.875C6.2479 1.875 1.875 7.75079 1.875 14.999C1.875 22.2472 6.2479 28.1229 14.999 28.1229Z" fill="url(#paint6_radial_176_2503)"/>
<g opacity="0.5" filter="url(#filter0_f_176_2503)">
<path d="M7.03125 10.7812C7.03125 10.7812 7.26562 8.90625 9.375 8.90625C11.4844 8.90625 11.7188 10.7812 11.7188 10.7812" stroke="#9A4609" stroke-width="2" stroke-linecap="round"/>
</g>
<g opacity="0.5" filter="url(#filter1_f_176_2503)">
<path d="M17.3438 10.7812C17.3438 10.7812 17.8125 8.90625 19.6875 8.90625C21.5625 8.90625 22.0312 10.7812 22.0312 10.7812" stroke="#9A4609" stroke-width="2" stroke-linecap="round"/>
</g>
<path d="M7.5 10.3125C7.5 10.3125 7.73438 8.4375 9.84375 8.4375C11.9531 8.4375 12.1875 10.3125 12.1875 10.3125" stroke="#43273B" stroke-width="2" stroke-linecap="round" stroke-linejoin="round"/>
<g opacity="0.26" filter="url(#filter2_f_176_2503)">
<path d="M7.73438 10.0781C7.73438 10.0781 7.96875 8.20312 10.0781 8.20312C12.1875 8.20312 12.4219 10.0781 12.4219 10.0781" stroke="white" stroke-width="0.75" stroke-linecap="round" stroke-linejoin="round"/>
</g>
<path d="M17.8125 10.3125C17.8125 10.3125 18.2812 8.4375 20.1562 8.4375C22.0312 8.4375 22.5 10.3125 22.5 10.3125" stroke="#43273B" stroke-width="2" stroke-linecap="round" stroke-linejoin="round"/>
<g opacity="0.26" filter="url(#filter3_f_176_2503)">
<path d="M18.0469 10.0781C18.0469 10.0781 18.2812 8.20312 20.3906 8.20312C22.5 8.20312 22.7344 10.0781 22.7344 10.0781" stroke="white" stroke-width="0.75" stroke-linecap="round" stroke-linejoin="round"/>
</g>
<path d="M15 24.375C5.625 24.375 5.625 15 5.625 15H24.375C24.375 15 24.375 24.375 15 24.375Z" fill="url(#paint7_radial_176_2503)"/>
<path d="M7.2739 18.5571L6.5625 15H23.4375L22.7261 18.5571C22.5946 19.2143 22.0175 19.6875 21.3472 19.6875H8.65285C7.98251 19.6875 7.40537 19.2143 7.2739 18.5571Z" fill="url(#paint8_radial_176_2503)"/>
<path d="M7.2739 18.5571L6.5625 15H23.4375L22.7261 18.5571C22.5946 19.2143 22.0175 19.6875 21.3472 19.6875H8.65285C7.98251 19.6875 7.40537 19.2143 7.2739 18.5571Z" fill="url(#paint9_linear_176_2503)"/>
<path fill-rule="evenodd" clip-rule="evenodd" d="M7.82135 21.2958C9.1878 22.996 11.4044 24.375 15 24.375C18.5949 24.375 20.8113 22.9964 22.1778 21.2966L22.2754 20.8088C22.3914 20.2287 21.9478 19.6875 21.3561 19.6875H8.64326C8.05165 19.6875 7.60794 20.2287 7.72397 20.8088L7.82135 21.2958Z" fill="url(#paint10_linear_176_2503)"/>
<path opacity="0.5" d="M7.03125 21.5625C10.3968 21.5625 13.125 18.8343 13.125 15.4688C13.125 12.1032 10.3968 9.375 7.03125 9.375C3.66577 9.375 0.9375 12.1032 0.9375 15.4688C0.9375 18.8343 3.66577 21.5625 7.03125 21.5625Z" fill="url(#paint11_radial_176_2503)"/>
<path opacity="0.5" d="M22.9688 21.5625C26.3343 21.5625 29.0625 18.8343 29.0625 15.4688C29.0625 12.1032 26.3343 9.375 22.9688 9.375C19.6032 9.375 16.875 12.1032 16.875 15.4688C16.875 18.8343 19.6032 21.5625 22.9688 21.5625Z" fill="url(#paint12_radial_176_2503)"/>
<defs>
<filter id="filter0_f_176_2503" x="4.53113" y="6.40625" width="9.68774" height="6.875" filterUnits="userSpaceOnUse" color-interpolation-filters="sRGB">
<feFlood flood-opacity="0" result="BackgroundImageFix"/>
<feBlend mode="normal" in="SourceGraphic" in2="BackgroundImageFix" result="shape"/>
<feGaussianBlur stdDeviation="0.75" result="effect1_foregroundBlur_176_2503"/>
</filter>
<filter id="filter1_f_176_2503" x="14.8435" y="6.40625" width="9.68799" height="6.875" filterUnits="userSpaceOnUse" color-interpolation-filters="sRGB">
<feFlood flood-opacity="0" result="BackgroundImageFix"/>
<feBlend mode="normal" in="SourceGraphic" in2="BackgroundImageFix" result="shape"/>
<feGaussianBlur stdDeviation="0.75" result="effect1_foregroundBlur_176_2503"/>
</filter>
<filter id="filter2_f_176_2503" x="5.85938" y="6.32812" width="8.4375" height="5.625" filterUnits="userSpaceOnUse" color-interpolation-filters="sRGB">
<feFlood flood-opacity="0" result="BackgroundImageFix"/>
<feBlend mode="normal" in="SourceGraphic" in2="BackgroundImageFix" result="shape"/>
<feGaussianBlur stdDeviation="0.75" result="effect1_foregroundBlur_176_2503"/>
</filter>
<filter id="filter3_f_176_2503" x="16.1719" y="6.32812" width="8.4375" height="5.625" filterUnits="userSpaceOnUse" color-interpolation-filters="sRGB">
<feFlood flood-opacity="0" result="BackgroundImageFix"/>
<feBlend mode="normal" in="SourceGraphic" in2="BackgroundImageFix" result="shape"/>
<feGaussianBlur stdDeviation="0.75" result="effect1_foregroundBlur_176_2503"/>
</filter>
<radialGradient id="paint0_radial_176_2503" cx="0" cy="0" r="1" gradientUnits="userSpaceOnUse" gradientTransform="translate(23.9062 8.4375) rotate(132.839) scale(35.1593)">
<stop stop-color="#FFF478"/>
<stop offset="0.474827" stop-color="#FFB02E"/>
<stop offset="1" stop-color="#F70A8D"/>
</radialGradient>
<radialGradient id="paint1_radial_176_2503" cx="0" cy="0" r="1" gradientUnits="userSpaceOnUse" gradientTransform="translate(23.9062 8.4375) rotate(131.878) scale(36.5144)">
<stop stop-color="#FFF478"/>
<stop offset="0.474827" stop-color="#FFB02E"/>
<stop offset="1" stop-color="#F70A8D"/>
</radialGradient>
<radialGradient id="paint2_radial_176_2503" cx="0" cy="0" r="1" gradientUnits="userSpaceOnUse" gradientTransform="translate(15 11.7187) rotate(101.31) scale(16.7312 21.4295)">
<stop offset="0.787821" stop-color="#F59639" stop-opacity="0"/>
<stop offset="0.972509" stop-color="#FF7DCE"/>
</radialGradient>
<radialGradient id="paint3_radial_176_2503" cx="0" cy="0" r="1" gradientUnits="userSpaceOnUse" gradientTransform="translate(16.875 13.125) rotate(135) scale(38.4489)">
<stop offset="0.314853" stop-opacity="0"/>
<stop offset="1"/>
</radialGradient>
<radialGradient id="paint4_radial_176_2503" cx="0" cy="0" r="1" gradientUnits="userSpaceOnUse" gradientTransform="translate(15 15.9375) rotate(77.692) scale(26.3877)">
<stop offset="0.507903" stop-color="#7D6133" stop-opacity="0"/>
<stop offset="1" stop-color="#715B32"/>
</radialGradient>
<radialGradient id="paint5_radial_176_2503" cx="0" cy="0" r="1" gradientUnits="userSpaceOnUse" gradientTransform="translate(15.4687 15.4687) rotate(55.7131) scale(12.4814 9.04717)">
<stop stop-color="#FFB849"/>
<stop offset="1" stop-color="#FFB847" stop-opacity="0"/>
</radialGradient>
<radialGradient id="paint6_radial_176_2503" cx="0" cy="0" r="1" gradientUnits="userSpaceOnUse" gradientTransform="translate(19.2187 16.875) rotate(9.86581) scale(10.9431)">
<stop stop-color="#FFA64B"/>
<stop offset="0.900412" stop-color="#FFAE46" stop-opacity="0"/>
</radialGradient>
<radialGradient id="paint7_radial_176_2503" cx="0" cy="0" r="1" gradientUnits="userSpaceOnUse" gradientTransform="translate(14.0625 23.4375) rotate(-90) scale(8.4375 16.875)">
<stop stop-color="#F70A8D"/>
<stop offset="1" stop-color="#89029C"/>
</radialGradient>
<radialGradient id="paint8_radial_176_2503" cx="0" cy="0" r="1" gradientUnits="userSpaceOnUse" gradientTransform="translate(20.1562 15) rotate(138.576) scale(10.6273)">
<stop stop-color="white"/>
<stop offset="1" stop-color="#ECCDFF"/>
</radialGradient>
<linearGradient id="paint9_linear_176_2503" x1="15" y1="18.75" x2="15" y2="20.1563" gradientUnits="userSpaceOnUse">
<stop stop-color="#E181F4" stop-opacity="0"/>
<stop offset="1" stop-color="#E181F4"/>
</linearGradient>
<linearGradient id="paint10_linear_176_2503" x1="15.9851" y1="19.6875" x2="14.7913" y2="23.6975" gradientUnits="userSpaceOnUse">
<stop stop-color="white"/>
<stop offset="1" stop-color="#ECCDFF"/>
</linearGradient>
<radialGradient id="paint11_radial_176_2503" cx="0" cy="0" r="1" gradientUnits="userSpaceOnUse" gradientTransform="translate(7.03606 15.4699) scale(6.08894)">
<stop stop-color="#F70A8D" stop-opacity="0.59"/>
<stop offset="1" stop-color="#FF6DC6" stop-opacity="0"/>
</radialGradient>
<radialGradient id="paint12_radial_176_2503" cx="0" cy="0" r="1" gradientUnits="userSpaceOnUse" gradientTransform="translate(22.9735 15.4699) scale(6.08894)">
<stop stop-color="#F70A8D" stop-opacity="0.59"/>
<stop offset="1" stop-color="#FF6DC6" stop-opacity="0"/>
</radialGradient>
</defs>
</svg>
