<svg width="30" height="30" viewBox="0 0 30 30" fill="none" xmlns="http://www.w3.org/2000/svg">
<path d="M14.999 28.1229C23.75 28.1229 28.1229 22.2472 28.1229 14.999C28.1229 7.75079 23.75 1.875 14.999 1.875C6.2479 1.875 1.875 7.75079 1.875 14.999C1.875 22.2472 6.2479 28.1229 14.999 28.1229Z" fill="url(#paint0_radial_176_2569)"/>
<path d="M14.999 28.1229C23.75 28.1229 28.1229 22.2472 28.1229 14.999C28.1229 7.75079 23.75 1.875 14.999 1.875C6.2479 1.875 1.875 7.75079 1.875 14.999C1.875 22.2472 6.2479 28.1229 14.999 28.1229Z" fill="url(#paint1_radial_176_2569)"/>
<path d="M14.999 28.1229C23.75 28.1229 28.1229 22.2472 28.1229 14.999C28.1229 7.75079 23.75 1.875 14.999 1.875C6.2479 1.875 1.875 7.75079 1.875 14.999C1.875 22.2472 6.2479 28.1229 14.999 28.1229Z" fill="url(#paint2_radial_176_2569)"/>
<path d="M14.999 28.1229C23.75 28.1229 28.1229 22.2472 28.1229 14.999C28.1229 7.75079 23.75 1.875 14.999 1.875C6.2479 1.875 1.875 7.75079 1.875 14.999C1.875 22.2472 6.2479 28.1229 14.999 28.1229Z" fill="url(#paint3_radial_176_2569)" fill-opacity="0.6"/>
<path d="M14.999 28.1229C23.75 28.1229 28.1229 22.2472 28.1229 14.999C28.1229 7.75079 23.75 1.875 14.999 1.875C6.2479 1.875 1.875 7.75079 1.875 14.999C1.875 22.2472 6.2479 28.1229 14.999 28.1229Z" fill="url(#paint4_radial_176_2569)"/>
<path d="M14.999 28.1229C23.75 28.1229 28.1229 22.2472 28.1229 14.999C28.1229 7.75079 23.75 1.875 14.999 1.875C6.2479 1.875 1.875 7.75079 1.875 14.999C1.875 22.2472 6.2479 28.1229 14.999 28.1229Z" fill="url(#paint5_radial_176_2569)"/>
<path d="M14.999 28.1229C23.75 28.1229 28.1229 22.2472 28.1229 14.999C28.1229 7.75079 23.75 1.875 14.999 1.875C6.2479 1.875 1.875 7.75079 1.875 14.999C1.875 22.2472 6.2479 28.1229 14.999 28.1229Z" fill="url(#paint6_radial_176_2569)"/>
<path d="M8.4375 16.875C11.0263 16.875 13.125 14.7763 13.125 12.1875C13.125 9.59867 11.0263 7.5 8.4375 7.5C5.84867 7.5 3.75 9.59867 3.75 12.1875C3.75 14.7763 5.84867 16.875 8.4375 16.875Z" fill="url(#paint7_radial_176_2569)"/>
<path d="M18.2812 16.875C20.6112 16.875 22.5 14.9862 22.5 12.6562C22.5 10.3263 20.6112 8.4375 18.2812 8.4375C15.9513 8.4375 14.0625 10.3263 14.0625 12.6562C14.0625 14.9862 15.9513 16.875 18.2812 16.875Z" fill="url(#paint8_radial_176_2569)"/>
<path d="M9.84375 15C12.1737 15 14.0625 13.1112 14.0625 10.7812C14.0625 8.4513 12.1737 6.5625 9.84375 6.5625C7.5138 6.5625 5.625 8.4513 5.625 10.7812C5.625 13.1112 7.5138 15 9.84375 15Z" fill="white"/>
<path d="M20.1562 15C22.4862 15 24.375 13.1112 24.375 10.7812C24.375 8.4513 22.4862 6.5625 20.1562 6.5625C17.8263 6.5625 15.9375 8.4513 15.9375 10.7812C15.9375 13.1112 17.8263 15 20.1562 15Z" fill="white"/>
<path d="M10.3125 14.0625C11.8658 14.0625 13.125 12.8033 13.125 11.25C13.125 9.69666 11.8658 8.4375 10.3125 8.4375C8.7592 8.4375 7.5 9.69666 7.5 11.25C7.5 12.8033 8.7592 14.0625 10.3125 14.0625Z" fill="url(#paint9_linear_176_2569)"/>
<path d="M19.6875 14.0625C21.2408 14.0625 22.5 12.8033 22.5 11.25C22.5 9.69666 21.2408 8.4375 19.6875 8.4375C18.1342 8.4375 16.875 9.69666 16.875 11.25C16.875 12.8033 18.1342 14.0625 19.6875 14.0625Z" fill="url(#paint10_linear_176_2569)"/>
<path fill-rule="evenodd" clip-rule="evenodd" d="M16.5654 15.8623C16.0476 15.8623 15.6279 16.282 15.6279 16.7998C15.6279 17.3176 16.0476 17.7373 16.5654 17.7373C16.8351 17.7373 17.0529 17.9551 17.0529 18.2248C17.0529 18.4945 16.8351 18.7123 16.5654 18.7123C16.0476 18.7123 15.6279 19.132 15.6279 19.6498C15.6279 20.1676 16.0476 20.5873 16.5654 20.5873C16.8351 20.5873 17.0529 20.8051 17.0529 21.0748C17.0529 21.3445 16.8351 21.5623 16.5654 21.5623C16.0476 21.5623 15.6279 21.982 15.6279 22.4998C15.6279 23.0176 16.0476 23.4373 16.5654 23.4373C17.8707 23.4373 18.9279 22.3801 18.9279 21.0748C18.9279 20.5395 18.7501 20.0459 18.4503 19.6498C18.7501 19.2537 18.9279 18.7601 18.9279 18.2248C18.9279 16.9195 17.8707 15.8623 16.5654 15.8623Z" fill="url(#paint11_radial_176_2569)"/>
<mask id="mask0_176_2569" style="mask-type:luminance" maskUnits="userSpaceOnUse" x="15" y="15" width="4" height="9">
<path fill-rule="evenodd" clip-rule="evenodd" d="M16.5654 15.8623C16.0476 15.8623 15.6279 16.282 15.6279 16.7998C15.6279 17.3176 16.0476 17.7373 16.5654 17.7373C16.8351 17.7373 17.0529 17.9551 17.0529 18.2248C17.0529 18.4945 16.8351 18.7123 16.5654 18.7123C16.0476 18.7123 15.6279 19.132 15.6279 19.6498C15.6279 20.1676 16.0476 20.5873 16.5654 20.5873C16.8351 20.5873 17.0529 20.8051 17.0529 21.0748C17.0529 21.3445 16.8351 21.5623 16.5654 21.5623C16.0476 21.5623 15.6279 21.982 15.6279 22.4998C15.6279 23.0176 16.0476 23.4373 16.5654 23.4373C17.8707 23.4373 18.9279 22.3801 18.9279 21.0748C18.9279 20.5395 18.7501 20.0459 18.4503 19.6498C18.7501 19.2537 18.9279 18.7601 18.9279 18.2248C18.9279 16.9195 17.8707 15.8623 16.5654 15.8623Z" fill="url(#paint12_linear_176_2569)"/>
</mask>
<g mask="url(#mask0_176_2569)">
<path d="M18.4503 19.6498L18.0765 19.3669L17.8624 19.6498L18.0765 19.9327L18.4503 19.6498ZM16.0967 16.7998C16.0967 16.5409 16.3066 16.3311 16.5654 16.3311V15.3936C15.7888 15.3936 15.1592 16.0232 15.1592 16.7998H16.0967ZM16.5654 17.2686C16.3066 17.2686 16.0967 17.0586 16.0967 16.7998H15.1592C15.1592 17.5764 15.7888 18.2061 16.5654 18.2061V17.2686ZM17.5217 18.2248C17.5217 17.6961 17.0941 17.2686 16.5654 17.2686V18.2061C16.5763 18.2061 16.5842 18.2139 16.5842 18.2248H17.5217ZM16.5654 19.1811C17.0941 19.1811 17.5217 18.7534 17.5217 18.2248H16.5842C16.5842 18.2357 16.5763 18.2436 16.5654 18.2436V19.1811ZM16.0967 19.6498C16.0967 19.3909 16.3066 19.1811 16.5654 19.1811V18.2436C15.7888 18.2436 15.1592 18.8732 15.1592 19.6498H16.0967ZM16.5654 20.1186C16.3066 20.1186 16.0967 19.9087 16.0967 19.6498H15.1592C15.1592 20.4264 15.7888 21.0561 16.5654 21.0561V20.1186ZM17.5217 21.0748C17.5217 20.5462 17.0941 20.1186 16.5654 20.1186V21.0561C16.5763 21.0561 16.5842 21.0639 16.5842 21.0748H17.5217ZM16.5654 22.0311C17.0941 22.0311 17.5217 21.6035 17.5217 21.0748H16.5842C16.5842 21.0857 16.5763 21.0936 16.5654 21.0936V22.0311ZM16.0967 22.4998C16.0967 22.241 16.3066 22.0311 16.5654 22.0311V21.0936C15.7888 21.0936 15.1592 21.7232 15.1592 22.4998H16.0967ZM16.5654 22.9686C16.3066 22.9686 16.0967 22.7587 16.0967 22.4998H15.1592C15.1592 23.2764 15.7888 23.9061 16.5654 23.9061V22.9686ZM18.4592 21.0748C18.4592 22.1212 17.6119 22.9686 16.5654 22.9686V23.9061C18.1296 23.9061 19.3967 22.6389 19.3967 21.0748H18.4592ZM18.0765 19.9327C18.3169 20.2502 18.4592 20.6451 18.4592 21.0748H19.3967C19.3967 20.4339 19.1834 19.8416 18.824 19.3669L18.0765 19.9327ZM18.4592 18.2248C18.4592 18.6546 18.3169 19.0494 18.0765 19.3669L18.824 19.9327C19.1834 19.458 19.3967 18.8657 19.3967 18.2248H18.4592ZM16.5654 16.3311C17.6119 16.3311 18.4592 17.1784 18.4592 18.2248H19.3967C19.3967 16.6607 18.1296 15.3936 16.5654 15.3936V16.3311Z" fill="url(#paint13_linear_176_2569)"/>
</g>
<defs>
<radialGradient id="paint0_radial_176_2569" cx="0" cy="0" r="1" gradientUnits="userSpaceOnUse" gradientTransform="translate(23.9063 8.4375) rotate(132.839) scale(35.1593)">
<stop stop-color="#FFF478"/>
<stop offset="0.474827" stop-color="#FFB02E"/>
<stop offset="1" stop-color="#F70A8D"/>
</radialGradient>
<radialGradient id="paint1_radial_176_2569" cx="0" cy="0" r="1" gradientUnits="userSpaceOnUse" gradientTransform="translate(23.9063 8.4375) rotate(131.878) scale(36.5144)">
<stop stop-color="#FFF478"/>
<stop offset="0.474827" stop-color="#FFB02E"/>
<stop offset="1" stop-color="#F70A8D"/>
</radialGradient>
<radialGradient id="paint2_radial_176_2569" cx="0" cy="0" r="1" gradientUnits="userSpaceOnUse" gradientTransform="translate(15 11.7188) rotate(101.31) scale(16.7312 21.4295)">
<stop offset="0.787821" stop-color="#F59639" stop-opacity="0"/>
<stop offset="0.972509" stop-color="#FF7DCE"/>
</radialGradient>
<radialGradient id="paint3_radial_176_2569" cx="0" cy="0" r="1" gradientUnits="userSpaceOnUse" gradientTransform="translate(16.875 13.125) rotate(135) scale(38.4489)">
<stop offset="0.314853" stop-opacity="0"/>
<stop offset="1"/>
</radialGradient>
<radialGradient id="paint4_radial_176_2569" cx="0" cy="0" r="1" gradientUnits="userSpaceOnUse" gradientTransform="translate(15 15.9375) rotate(77.692) scale(26.3877)">
<stop offset="0.507903" stop-color="#7D6133" stop-opacity="0"/>
<stop offset="1" stop-color="#715B32"/>
</radialGradient>
<radialGradient id="paint5_radial_176_2569" cx="0" cy="0" r="1" gradientUnits="userSpaceOnUse" gradientTransform="translate(15.4688 15.4688) rotate(55.7131) scale(12.4814 9.04717)">
<stop stop-color="#FFB849"/>
<stop offset="1" stop-color="#FFB847" stop-opacity="0"/>
</radialGradient>
<radialGradient id="paint6_radial_176_2569" cx="0" cy="0" r="1" gradientUnits="userSpaceOnUse" gradientTransform="translate(19.2188 16.875) rotate(9.86581) scale(10.9431)">
<stop stop-color="#FFA64B"/>
<stop offset="0.900412" stop-color="#FFAE46" stop-opacity="0"/>
</radialGradient>
<radialGradient id="paint7_radial_176_2569" cx="0" cy="0" r="1" gradientUnits="userSpaceOnUse" gradientTransform="translate(12.0833 8.54167) rotate(135) scale(9.13346 4.72718)">
<stop stop-color="#392108"/>
<stop offset="1" stop-color="#C87928" stop-opacity="0"/>
</radialGradient>
<radialGradient id="paint8_radial_176_2569" cx="0" cy="0" r="1" gradientUnits="userSpaceOnUse" gradientTransform="translate(21.5625 9.375) rotate(135) scale(7.6235 4.30358)">
<stop stop-color="#392108"/>
<stop offset="1" stop-color="#C87928" stop-opacity="0"/>
</radialGradient>
<linearGradient id="paint9_linear_176_2569" x1="20.7692" y1="8.4375" x2="19.6875" y2="14.0625" gradientUnits="userSpaceOnUse">
<stop stop-color="#553B3E"/>
<stop offset="1" stop-color="#3D2432"/>
</linearGradient>
<linearGradient id="paint10_linear_176_2569" x1="20.7692" y1="8.4375" x2="19.6875" y2="14.0625" gradientUnits="userSpaceOnUse">
<stop stop-color="#553B3E"/>
<stop offset="1" stop-color="#3D2432"/>
</linearGradient>
<radialGradient id="paint11_radial_176_2569" cx="0" cy="0" r="1" gradientUnits="userSpaceOnUse" gradientTransform="translate(15.6279 19.6498) scale(5.93445 6.81116)">
<stop stop-color="#3E3537"/>
<stop offset="0.313085" stop-color="#523A4F"/>
<stop offset="0.675586" stop-color="#6A5763"/>
</radialGradient>
<linearGradient id="paint12_linear_176_2569" x1="17.8124" y1="19.6873" x2="19.2186" y2="19.2186" gradientUnits="userSpaceOnUse">
<stop stop-color="#664F62" stop-opacity="0"/>
<stop offset="1" stop-color="#765D72"/>
</linearGradient>
<linearGradient id="paint13_linear_176_2569" x1="17.8124" y1="19.6873" x2="19.2186" y2="19.2186" gradientUnits="userSpaceOnUse">
<stop stop-color="#664F62" stop-opacity="0"/>
<stop offset="1" stop-color="#765D72"/>
</linearGradient>
</defs>
</svg>
