<svg width="30" height="30" viewBox="0 0 30 30" fill="none" xmlns="http://www.w3.org/2000/svg">
<path d="M14.999 28.1229C23.75 28.1229 28.1229 22.2472 28.1229 14.999C28.1229 7.75079 23.75 1.875 14.999 1.875C6.2479 1.875 1.875 7.75079 1.875 14.999C1.875 22.2472 6.2479 28.1229 14.999 28.1229Z" fill="url(#paint0_radial_176_2547)"/>
<path d="M14.999 28.1229C23.75 28.1229 28.1229 22.2472 28.1229 14.999C28.1229 7.75079 23.75 1.875 14.999 1.875C6.2479 1.875 1.875 7.75079 1.875 14.999C1.875 22.2472 6.2479 28.1229 14.999 28.1229Z" fill="url(#paint1_radial_176_2547)"/>
<path d="M14.999 28.1229C23.75 28.1229 28.1229 22.2472 28.1229 14.999C28.1229 7.75079 23.75 1.875 14.999 1.875C6.2479 1.875 1.875 7.75079 1.875 14.999C1.875 22.2472 6.2479 28.1229 14.999 28.1229Z" fill="url(#paint2_radial_176_2547)"/>
<path d="M14.999 28.1229C23.75 28.1229 28.1229 22.2472 28.1229 14.999C28.1229 7.75079 23.75 1.875 14.999 1.875C6.2479 1.875 1.875 7.75079 1.875 14.999C1.875 22.2472 6.2479 28.1229 14.999 28.1229Z" fill="url(#paint3_radial_176_2547)" fill-opacity="0.6"/>
<path d="M14.999 28.1229C23.75 28.1229 28.1229 22.2472 28.1229 14.999C28.1229 7.75079 23.75 1.875 14.999 1.875C6.2479 1.875 1.875 7.75079 1.875 14.999C1.875 22.2472 6.2479 28.1229 14.999 28.1229Z" fill="url(#paint4_radial_176_2547)"/>
<path d="M14.999 28.1229C23.75 28.1229 28.1229 22.2472 28.1229 14.999C28.1229 7.75079 23.75 1.875 14.999 1.875C6.2479 1.875 1.875 7.75079 1.875 14.999C1.875 22.2472 6.2479 28.1229 14.999 28.1229Z" fill="url(#paint5_radial_176_2547)"/>
<path d="M14.999 28.1229C23.75 28.1229 28.1229 22.2472 28.1229 14.999C28.1229 7.75079 23.75 1.875 14.999 1.875C6.2479 1.875 1.875 7.75079 1.875 14.999C1.875 22.2472 6.2479 28.1229 14.999 28.1229Z" fill="url(#paint6_radial_176_2547)"/>
<path d="M8.4375 19.6875C11.0263 19.6875 13.125 17.5888 13.125 15C13.125 12.4112 11.0263 10.3125 8.4375 10.3125C5.84867 10.3125 3.75 12.4112 3.75 15C3.75 17.5888 5.84867 19.6875 8.4375 19.6875Z" fill="url(#paint7_radial_176_2547)"/>
<path d="M18.2812 19.6875C20.6112 19.6875 22.5 17.7987 22.5 15.4688C22.5 13.1388 20.6112 11.25 18.2812 11.25C15.9513 11.25 14.0625 13.1388 14.0625 15.4688C14.0625 17.7987 15.9513 19.6875 18.2812 19.6875Z" fill="url(#paint8_radial_176_2547)"/>
<path d="M9.84375 17.8125C12.1737 17.8125 14.0625 15.9237 14.0625 13.5938C14.0625 11.2638 12.1737 9.375 9.84375 9.375C7.5138 9.375 5.625 11.2638 5.625 13.5938C5.625 15.9237 7.5138 17.8125 9.84375 17.8125Z" fill="white"/>
<path d="M20.1562 17.8125C22.4862 17.8125 24.375 15.9237 24.375 13.5938C24.375 11.2638 22.4862 9.375 20.1562 9.375C17.8263 9.375 15.9375 11.2638 15.9375 13.5938C15.9375 15.9237 17.8263 17.8125 20.1562 17.8125Z" fill="white"/>
<path d="M12.1875 10.3125C12.1875 11.3481 11.3481 12.1875 10.3125 12.1875C9.27697 12.1875 8.4375 11.3481 8.4375 10.3125C8.4375 10.0462 8.49301 9.79284 8.5931 9.56344C8.98827 9.441 9.40828 9.375 9.84375 9.375C10.7047 9.375 11.5053 9.63281 12.1727 10.0755C12.1824 10.1531 12.1875 10.2322 12.1875 10.3125Z" fill="url(#paint9_linear_176_2547)"/>
<path d="M21.5625 10.3125C21.5625 11.3481 20.7231 12.1875 19.6875 12.1875C18.6519 12.1875 17.8125 11.3481 17.8125 10.3125C17.8125 10.2322 17.8176 10.1531 17.8273 10.0755C18.4947 9.63281 19.2953 9.375 20.1562 9.375C20.5917 9.375 21.0117 9.441 21.4069 9.56344C21.507 9.79284 21.5625 10.0462 21.5625 10.3125Z" fill="url(#paint10_linear_176_2547)"/>
<path d="M15 24.375C5.625 24.375 5.625 15 5.625 15H24.375C24.375 15 24.375 24.375 15 24.375Z" fill="url(#paint11_radial_176_2547)"/>
<path d="M22.0312 16.4062H7.96875C7.1921 16.4062 6.5625 15.7766 6.5625 15H23.4375C23.4375 15.7766 22.8079 16.4062 22.0312 16.4062Z" fill="url(#paint12_linear_176_2547)"/>
<path d="M6.09375 8.90625C6.40625 7.96875 7.59375 6.09375 9.84375 6.09375" stroke="url(#paint13_linear_176_2547)" stroke-linecap="round" stroke-linejoin="round"/>
<path d="M23.9062 8.90625C23.5938 7.96875 22.4063 6.09375 20.1562 6.09375" stroke="url(#paint14_linear_176_2547)" stroke-linecap="round" stroke-linejoin="round"/>
<defs>
<radialGradient id="paint0_radial_176_2547" cx="0" cy="0" r="1" gradientUnits="userSpaceOnUse" gradientTransform="translate(23.9063 8.4375) rotate(132.839) scale(35.1593)">
<stop stop-color="#FFF478"/>
<stop offset="0.474827" stop-color="#FFB02E"/>
<stop offset="1" stop-color="#F70A8D"/>
</radialGradient>
<radialGradient id="paint1_radial_176_2547" cx="0" cy="0" r="1" gradientUnits="userSpaceOnUse" gradientTransform="translate(23.9063 8.4375) rotate(131.878) scale(36.5144)">
<stop stop-color="#FFF478"/>
<stop offset="0.474827" stop-color="#FFB02E"/>
<stop offset="1" stop-color="#F70A8D"/>
</radialGradient>
<radialGradient id="paint2_radial_176_2547" cx="0" cy="0" r="1" gradientUnits="userSpaceOnUse" gradientTransform="translate(15 11.7188) rotate(101.31) scale(16.7312 21.4295)">
<stop offset="0.787821" stop-color="#F59639" stop-opacity="0"/>
<stop offset="0.972509" stop-color="#FF7DCE"/>
</radialGradient>
<radialGradient id="paint3_radial_176_2547" cx="0" cy="0" r="1" gradientUnits="userSpaceOnUse" gradientTransform="translate(16.875 13.125) rotate(135) scale(38.4489)">
<stop offset="0.314853" stop-opacity="0"/>
<stop offset="1"/>
</radialGradient>
<radialGradient id="paint4_radial_176_2547" cx="0" cy="0" r="1" gradientUnits="userSpaceOnUse" gradientTransform="translate(15 15.9375) rotate(77.692) scale(26.3877)">
<stop offset="0.507903" stop-color="#7D6133" stop-opacity="0"/>
<stop offset="1" stop-color="#715B32"/>
</radialGradient>
<radialGradient id="paint5_radial_176_2547" cx="0" cy="0" r="1" gradientUnits="userSpaceOnUse" gradientTransform="translate(15.4688 15.4688) rotate(55.7131) scale(12.4814 9.04717)">
<stop stop-color="#FFB849"/>
<stop offset="1" stop-color="#FFB847" stop-opacity="0"/>
</radialGradient>
<radialGradient id="paint6_radial_176_2547" cx="0" cy="0" r="1" gradientUnits="userSpaceOnUse" gradientTransform="translate(19.2188 16.875) rotate(9.86581) scale(10.9431)">
<stop stop-color="#FFA64B"/>
<stop offset="0.900412" stop-color="#FFAE46" stop-opacity="0"/>
</radialGradient>
<radialGradient id="paint7_radial_176_2547" cx="0" cy="0" r="1" gradientUnits="userSpaceOnUse" gradientTransform="translate(12.0833 11.3542) rotate(135) scale(9.13346 4.72718)">
<stop stop-color="#392108"/>
<stop offset="1" stop-color="#C87928" stop-opacity="0"/>
</radialGradient>
<radialGradient id="paint8_radial_176_2547" cx="0" cy="0" r="1" gradientUnits="userSpaceOnUse" gradientTransform="translate(21.5625 12.1875) rotate(135) scale(7.6235 4.30358)">
<stop stop-color="#392108"/>
<stop offset="1" stop-color="#C87928" stop-opacity="0"/>
</radialGradient>
<linearGradient id="paint9_linear_176_2547" x1="20.0481" y1="9.375" x2="19.7314" y2="12.2567" gradientUnits="userSpaceOnUse">
<stop stop-color="#553B3E"/>
<stop offset="1" stop-color="#3D2432"/>
</linearGradient>
<linearGradient id="paint10_linear_176_2547" x1="20.0481" y1="9.375" x2="19.7314" y2="12.2567" gradientUnits="userSpaceOnUse">
<stop stop-color="#553B3E"/>
<stop offset="1" stop-color="#3D2432"/>
</linearGradient>
<radialGradient id="paint11_radial_176_2547" cx="0" cy="0" r="1" gradientUnits="userSpaceOnUse" gradientTransform="translate(15 26.4583) rotate(-90) scale(11.4583 22.9166)">
<stop stop-color="#F70A8D"/>
<stop offset="1" stop-color="#89029C"/>
</radialGradient>
<linearGradient id="paint12_linear_176_2547" x1="15" y1="15" x2="15" y2="16.4062" gradientUnits="userSpaceOnUse">
<stop stop-color="#ECCDFF"/>
<stop offset="1" stop-color="white"/>
</linearGradient>
<linearGradient id="paint13_linear_176_2547" x1="6.40625" y1="9.75" x2="6.40625" y2="8.0625" gradientUnits="userSpaceOnUse">
<stop offset="0.0299084" stop-color="#524049"/>
<stop offset="1" stop-color="#4A2C42"/>
</linearGradient>
<linearGradient id="paint14_linear_176_2547" x1="23.5938" y1="9.75" x2="23.5938" y2="8.0625" gradientUnits="userSpaceOnUse">
<stop offset="0.0299084" stop-color="#524049"/>
<stop offset="1" stop-color="#4A2C42"/>
</linearGradient>
</defs>
</svg>
