<svg width="50" height="50" viewBox="0 0 50 50" fill="none" xmlns="http://www.w3.org/2000/svg">
<g clip-path="url(#clip0_176_5859)">
<path d="M18.75 20.625C18.75 21.6605 17.9105 22.5 16.875 22.5C15.8395 22.5 15 21.6605 15 20.625C15 19.5895 15.8395 18.75 16.875 18.75C17.9105 18.75 18.75 19.5895 18.75 20.625Z" fill="#4B5568"/>
<path d="M30 20.625C30 21.6605 29.1605 22.5 28.125 22.5C27.0895 22.5 26.25 21.6605 26.25 20.625C26.25 19.5895 27.0895 18.75 28.125 18.75C29.1605 18.75 30 19.5895 30 20.625Z" fill="#4B5568"/>
<path fill-rule="evenodd" clip-rule="evenodd" d="M35.8387 13.4685C34.4745 13.859 32.9016 13.3979 32.3255 12.4386C30.7152 9.75689 26.9655 7.84223 22.5719 7.76437C18.1782 7.6865 14.3631 9.46709 12.6587 12.0901C12.049 13.0283 10.4607 13.4334 9.11117 12.9948C7.76162 12.5563 7.16182 11.4401 7.77149 10.5018C10.3218 6.57705 16.0374 3.89797 22.6383 4.01495C29.2391 4.13194 34.8563 7.01186 37.2659 11.0246C37.842 11.9838 37.203 13.078 35.8387 13.4685Z" fill="#4B5568"/>
<path fill-rule="evenodd" clip-rule="evenodd" d="M28.9024 41.7462C29.0664 40.4663 30.0806 39.3776 31.1676 39.3146C34.2064 39.1384 37.3624 36.8893 39.0998 33.3344C40.8372 29.7794 40.6727 25.9075 38.9447 23.4017C38.3266 22.5053 38.5625 21.0362 39.4716 20.1204C40.3806 19.2046 41.6187 19.1887 42.2368 20.0851C44.8223 23.8346 45.0792 29.6401 42.4689 34.981C39.8587 40.3218 35.1203 43.686 30.5734 43.9496C29.4864 44.0127 28.7383 43.0262 28.9024 41.7462Z" fill="#4B5568"/>
<path fill-rule="evenodd" clip-rule="evenodd" d="M5.14366 20.1161C6.06073 21.0239 6.30949 22.4908 5.69928 23.3926C3.99338 25.9135 3.86286 29.7867 5.63142 33.3262C7.39998 36.8658 10.5756 39.0871 13.6158 39.2366C14.7033 39.2901 15.727 40.3698 15.9023 41.6483C16.0776 42.9267 15.3381 43.9198 14.2506 43.8663C9.70158 43.6426 4.93388 40.3201 2.27685 35.0024C-0.380186 29.6846 -0.174283 23.8771 2.37827 20.105C2.98848 19.2033 4.22659 19.2082 5.14366 20.1161Z" fill="#4B5568"/>
<path fill-rule="evenodd" clip-rule="evenodd" d="M14.1321 28.2508C14.9817 27.9192 15.9715 28.2657 16.3427 29.0248C17.3805 31.1469 19.7489 32.6252 22.5 32.6252C25.2511 32.6252 27.6195 31.1469 28.6573 29.0248C29.0285 28.2657 30.0183 27.9192 30.8679 28.2508C31.7175 28.5825 32.1054 29.4667 31.7341 30.2258C30.1813 33.4012 26.6332 35.625 22.5 35.625C18.3668 35.625 14.8187 33.4012 13.2659 30.2258C12.8946 29.4667 13.2825 28.5825 14.1321 28.2508Z" fill="#4B5568"/>
</g>
<path d="M36.75 36.75H31.75C30.7835 36.75 30 37.5335 30 38.5C30 39.4665 30.7835 40.25 31.75 40.25H36.75V45.25C36.75 46.2165 37.5335 47 38.5 47C39.4665 47 40.25 46.2165 40.25 45.25V40.25H45.25C46.2165 40.25 47 39.4665 47 38.5C47 37.5335 46.2165 36.75 45.25 36.75H40.25V31.75C40.25 30.7835 39.4665 30 38.5 30C37.5335 30 36.75 30.7835 36.75 31.75V36.75Z" fill="#4B5568" stroke="white" stroke-width="2"/>
<defs>
<clipPath id="clip0_176_5859">
<rect width="45" height="45" fill="white"/>
</clipPath>
</defs>
</svg>
