<svg width="351" height="243" viewBox="0 0 351 243" fill="none" xmlns="http://www.w3.org/2000/svg">
<g clip-path="url(#clip0_254_1808)">
<circle cx="4.5" cy="1.5" r="1.5" fill="#EAEAEA"/>
<circle cx="16.5" cy="1.5" r="1.5" fill="#EAEAEA"/>
<circle cx="28.5" cy="1.5" r="1.5" fill="#EAEAEA"/>
<circle cx="40.5" cy="1.5" r="1.5" fill="#EAEAEA"/>
<circle cx="52.5" cy="1.5" r="1.5" fill="#EAEAEA"/>
<circle cx="64.5" cy="1.5" r="1.5" fill="#EAEAEA"/>
<circle cx="76.5" cy="1.5" r="1.5" fill="#EAEAEA"/>
<circle cx="88.5" cy="1.5" r="1.5" fill="#EAEAEA"/>
<circle cx="100.5" cy="1.5" r="1.5" fill="#EAEAEA"/>
<circle cx="112.5" cy="1.5" r="1.5" fill="#EAEAEA"/>
<circle cx="124.5" cy="1.5" r="1.5" fill="#EAEAEA"/>
<circle cx="136.5" cy="1.5" r="1.5" fill="#EAEAEA"/>
<circle cx="148.5" cy="1.5" r="1.5" fill="#EAEAEA"/>
<circle cx="160.5" cy="1.5" r="1.5" fill="#EAEAEA"/>
<circle cx="172.5" cy="1.5" r="1.5" fill="#EAEAEA"/>
<circle cx="184.5" cy="1.5" r="1.5" fill="#EAEAEA"/>
<circle cx="196.5" cy="1.5" r="1.5" fill="#EAEAEA"/>
<circle cx="208.5" cy="1.5" r="1.5" fill="#EAEAEA"/>
<circle cx="220.5" cy="1.5" r="1.5" fill="#EAEAEA"/>
<circle cx="232.5" cy="1.5" r="1.5" fill="#EAEAEA"/>
<circle cx="244.5" cy="1.5" r="1.5" fill="#EAEAEA"/>
<circle cx="256.5" cy="1.5" r="1.5" fill="#EAEAEA"/>
<circle cx="268.5" cy="1.5" r="1.5" fill="#EAEAEA"/>
<circle cx="280.5" cy="1.5" r="1.5" fill="#EAEAEA"/>
<circle cx="292.5" cy="1.5" r="1.5" fill="#EAEAEA"/>
<circle cx="304.5" cy="1.5" r="1.5" fill="#EAEAEA"/>
<circle cx="316.5" cy="1.5" r="1.5" fill="#EAEAEA"/>
<circle cx="328.5" cy="1.5" r="1.5" fill="#EAEAEA"/>
<circle cx="340.5" cy="1.5" r="1.5" fill="#EAEAEA"/>
<circle cx="4.5" cy="13.5" r="1.5" fill="#EAEAEA"/>
<circle cx="16.5" cy="13.5" r="1.5" fill="#EAEAEA"/>
<circle cx="28.5" cy="13.5" r="1.5" fill="#EAEAEA"/>
<circle cx="40.5" cy="13.5" r="1.5" fill="#EAEAEA"/>
<circle cx="52.5" cy="13.5" r="1.5" fill="#EAEAEA"/>
<circle cx="64.5" cy="13.5" r="1.5" fill="#EAEAEA"/>
<circle cx="76.5" cy="13.5" r="1.5" fill="#EAEAEA"/>
<circle cx="88.5" cy="13.5" r="1.5" fill="#EAEAEA"/>
<circle cx="100.5" cy="13.5" r="1.5" fill="#EAEAEA"/>
<circle cx="112.5" cy="13.5" r="1.5" fill="#EAEAEA"/>
<circle cx="124.5" cy="13.5" r="1.5" fill="#EAEAEA"/>
<circle cx="136.5" cy="13.5" r="1.5" fill="#EAEAEA"/>
<circle cx="148.5" cy="13.5" r="1.5" fill="#EAEAEA"/>
<circle cx="160.5" cy="13.5" r="1.5" fill="#EAEAEA"/>
<circle cx="172.5" cy="13.5" r="1.5" fill="#EAEAEA"/>
<circle cx="184.5" cy="13.5" r="1.5" fill="#EAEAEA"/>
<circle cx="196.5" cy="13.5" r="1.5" fill="#EAEAEA"/>
<circle cx="208.5" cy="13.5" r="1.5" fill="#EAEAEA"/>
<circle cx="220.5" cy="13.5" r="1.5" fill="#EAEAEA"/>
<circle cx="232.5" cy="13.5" r="1.5" fill="#EAEAEA"/>
<circle cx="244.5" cy="13.5" r="1.5" fill="#EAEAEA"/>
<circle cx="256.5" cy="13.5" r="1.5" fill="#EAEAEA"/>
<circle cx="268.5" cy="13.5" r="1.5" fill="#EAEAEA"/>
<circle cx="280.5" cy="13.5" r="1.5" fill="#EAEAEA"/>
<circle cx="292.5" cy="13.5" r="1.5" fill="#EAEAEA"/>
<circle cx="304.5" cy="13.5" r="1.5" fill="#EAEAEA"/>
<circle cx="316.5" cy="13.5" r="1.5" fill="#EAEAEA"/>
<circle cx="328.5" cy="13.5" r="1.5" fill="#EAEAEA"/>
<circle cx="340.5" cy="13.5" r="1.5" fill="#EAEAEA"/>
<circle cx="4.5" cy="25.5" r="1.5" fill="#EAEAEA"/>
<circle cx="16.5" cy="25.5" r="1.5" fill="#EAEAEA"/>
<circle cx="28.5" cy="25.5" r="1.5" fill="#EAEAEA"/>
<circle cx="40.5" cy="25.5" r="1.5" fill="#EAEAEA"/>
<circle cx="52.5" cy="25.5" r="1.5" fill="#EAEAEA"/>
<circle cx="64.5" cy="25.5" r="1.5" fill="#EAEAEA"/>
<circle cx="76.5" cy="25.5" r="1.5" fill="#EAEAEA"/>
<circle cx="88.5" cy="25.5" r="1.5" fill="#EAEAEA"/>
<circle cx="100.5" cy="25.5" r="1.5" fill="#EAEAEA"/>
<circle cx="112.5" cy="25.5" r="1.5" fill="#EAEAEA"/>
<circle cx="124.5" cy="25.5" r="1.5" fill="#EAEAEA"/>
<circle cx="136.5" cy="25.5" r="1.5" fill="#EAEAEA"/>
<circle cx="148.5" cy="25.5" r="1.5" fill="#EAEAEA"/>
<circle cx="160.5" cy="25.5" r="1.5" fill="#EAEAEA"/>
<circle cx="172.5" cy="25.5" r="1.5" fill="#EAEAEA"/>
<circle cx="184.5" cy="25.5" r="1.5" fill="#EAEAEA"/>
<circle cx="196.5" cy="25.5" r="1.5" fill="#EAEAEA"/>
<circle cx="208.5" cy="25.5" r="1.5" fill="#EAEAEA"/>
<circle cx="220.5" cy="25.5" r="1.5" fill="#EAEAEA"/>
<circle cx="232.5" cy="25.5" r="1.5" fill="#EAEAEA"/>
<circle cx="244.5" cy="25.5" r="1.5" fill="#EAEAEA"/>
<circle cx="256.5" cy="25.5" r="1.5" fill="#EAEAEA"/>
<circle cx="268.5" cy="25.5" r="1.5" fill="#EAEAEA"/>
<circle cx="280.5" cy="25.5" r="1.5" fill="#EAEAEA"/>
<circle cx="292.5" cy="25.5" r="1.5" fill="#EAEAEA"/>
<circle cx="304.5" cy="25.5" r="1.5" fill="#EAEAEA"/>
<circle cx="316.5" cy="25.5" r="1.5" fill="#EAEAEA"/>
<circle cx="328.5" cy="25.5" r="1.5" fill="#EAEAEA"/>
<circle cx="340.5" cy="25.5" r="1.5" fill="#EAEAEA"/>
<circle cx="4.5" cy="37.5" r="1.5" fill="#EAEAEA"/>
<circle cx="16.5" cy="37.5" r="1.5" fill="#EAEAEA"/>
<circle cx="28.5" cy="37.5" r="1.5" fill="#EAEAEA"/>
<circle cx="40.5" cy="37.5" r="1.5" fill="#EAEAEA"/>
<circle cx="52.5" cy="37.5" r="1.5" fill="#EAEAEA"/>
<circle cx="64.5" cy="37.5" r="1.5" fill="#EAEAEA"/>
<circle cx="76.5" cy="37.5" r="1.5" fill="#EAEAEA"/>
<circle cx="88.5" cy="37.5" r="1.5" fill="#EAEAEA"/>
<circle cx="100.5" cy="37.5" r="1.5" fill="#EAEAEA"/>
<circle cx="112.5" cy="37.5" r="1.5" fill="#EAEAEA"/>
<circle cx="124.5" cy="37.5" r="1.5" fill="#EAEAEA"/>
<circle cx="136.5" cy="37.5" r="1.5" fill="#EAEAEA"/>
<circle cx="148.5" cy="37.5" r="1.5" fill="#EAEAEA"/>
<circle cx="160.5" cy="37.5" r="1.5" fill="#EAEAEA"/>
<circle cx="172.5" cy="37.5" r="1.5" fill="#EAEAEA"/>
<circle cx="184.5" cy="37.5" r="1.5" fill="#EAEAEA"/>
<circle cx="196.5" cy="37.5" r="1.5" fill="#EAEAEA"/>
<circle cx="208.5" cy="37.5" r="1.5" fill="#EAEAEA"/>
<circle cx="220.5" cy="37.5" r="1.5" fill="#EAEAEA"/>
<circle cx="232.5" cy="37.5" r="1.5" fill="#EAEAEA"/>
<circle cx="244.5" cy="37.5" r="1.5" fill="#EAEAEA"/>
<circle cx="256.5" cy="37.5" r="1.5" fill="#EAEAEA"/>
<circle cx="268.5" cy="37.5" r="1.5" fill="#EAEAEA"/>
<circle cx="280.5" cy="37.5" r="1.5" fill="#EAEAEA"/>
<circle cx="292.5" cy="37.5" r="1.5" fill="#EAEAEA"/>
<circle cx="304.5" cy="37.5" r="1.5" fill="#EAEAEA"/>
<circle cx="316.5" cy="37.5" r="1.5" fill="#EAEAEA"/>
<circle cx="328.5" cy="37.5" r="1.5" fill="#EAEAEA"/>
<circle cx="340.5" cy="37.5" r="1.5" fill="#EAEAEA"/>
<circle cx="4.5" cy="49.5" r="1.5" fill="#EAEAEA"/>
<circle cx="16.5" cy="49.5" r="1.5" fill="#EAEAEA"/>
<circle cx="28.5" cy="49.5" r="1.5" fill="#EAEAEA"/>
<circle cx="40.5" cy="49.5" r="1.5" fill="#EAEAEA"/>
<circle cx="52.5" cy="49.5" r="1.5" fill="#EAEAEA"/>
<circle cx="64.5" cy="49.5" r="1.5" fill="#EAEAEA"/>
<circle cx="76.5" cy="49.5" r="1.5" fill="#EAEAEA"/>
<circle cx="88.5" cy="49.5" r="1.5" fill="#EAEAEA"/>
<circle cx="100.5" cy="49.5" r="1.5" fill="#EAEAEA"/>
<circle cx="112.5" cy="49.5" r="1.5" fill="#EAEAEA"/>
<circle cx="124.5" cy="49.5" r="1.5" fill="#EAEAEA"/>
<circle cx="136.5" cy="49.5" r="1.5" fill="#EAEAEA"/>
<circle cx="148.5" cy="49.5" r="1.5" fill="#EAEAEA"/>
<circle cx="160.5" cy="49.5" r="1.5" fill="#EAEAEA"/>
<circle cx="172.5" cy="49.5" r="1.5" fill="#EAEAEA"/>
<circle cx="184.5" cy="49.5" r="1.5" fill="#EAEAEA"/>
<circle cx="196.5" cy="49.5" r="1.5" fill="#EAEAEA"/>
<circle cx="208.5" cy="49.5" r="1.5" fill="#EAEAEA"/>
<circle cx="220.5" cy="49.5" r="1.5" fill="#EAEAEA"/>
<circle cx="232.5" cy="49.5" r="1.5" fill="#EAEAEA"/>
<circle cx="244.5" cy="49.5" r="1.5" fill="#EAEAEA"/>
<circle cx="256.5" cy="49.5" r="1.5" fill="#EAEAEA"/>
<circle cx="268.5" cy="49.5" r="1.5" fill="#EAEAEA"/>
<circle cx="280.5" cy="49.5" r="1.5" fill="#EAEAEA"/>
<circle cx="292.5" cy="49.5" r="1.5" fill="#EAEAEA"/>
<circle cx="304.5" cy="49.5" r="1.5" fill="#EAEAEA"/>
<circle cx="316.5" cy="49.5" r="1.5" fill="#EAEAEA"/>
<circle cx="328.5" cy="49.5" r="1.5" fill="#EAEAEA"/>
<circle cx="340.5" cy="49.5" r="1.5" fill="#EAEAEA"/>
<circle cx="4.5" cy="61.5" r="1.5" fill="#EAEAEA"/>
<circle cx="16.5" cy="61.5" r="1.5" fill="#EAEAEA"/>
<circle cx="28.5" cy="61.5" r="1.5" fill="#EAEAEA"/>
<circle cx="40.5" cy="61.5" r="1.5" fill="#EAEAEA"/>
<circle cx="52.5" cy="61.5" r="1.5" fill="#EAEAEA"/>
<circle cx="64.5" cy="61.5" r="1.5" fill="#EAEAEA"/>
<circle cx="76.5" cy="61.5" r="1.5" fill="#EAEAEA"/>
<circle cx="88.5" cy="61.5" r="1.5" fill="#EAEAEA"/>
<circle cx="100.5" cy="61.5" r="1.5" fill="#EAEAEA"/>
<circle cx="112.5" cy="61.5" r="1.5" fill="#EAEAEA"/>
<circle cx="124.5" cy="61.5" r="1.5" fill="#EAEAEA"/>
<circle cx="136.5" cy="61.5" r="1.5" fill="#EAEAEA"/>
<circle cx="148.5" cy="61.5" r="1.5" fill="#EAEAEA"/>
<circle cx="160.5" cy="61.5" r="1.5" fill="#EAEAEA"/>
<circle cx="172.5" cy="61.5" r="1.5" fill="#EAEAEA"/>
<circle cx="184.5" cy="61.5" r="1.5" fill="#EAEAEA"/>
<circle cx="196.5" cy="61.5" r="1.5" fill="#EAEAEA"/>
<circle cx="208.5" cy="61.5" r="1.5" fill="#EAEAEA"/>
<circle cx="220.5" cy="61.5" r="1.5" fill="#EAEAEA"/>
<circle cx="232.5" cy="61.5" r="1.5" fill="#EAEAEA"/>
<circle cx="244.5" cy="61.5" r="1.5" fill="#EAEAEA"/>
<circle cx="256.5" cy="61.5" r="1.5" fill="#EAEAEA"/>
<circle cx="268.5" cy="61.5" r="1.5" fill="#EAEAEA"/>
<circle cx="280.5" cy="61.5" r="1.5" fill="#EAEAEA"/>
<circle cx="292.5" cy="61.5" r="1.5" fill="#EAEAEA"/>
<circle cx="304.5" cy="61.5" r="1.5" fill="#EAEAEA"/>
<circle cx="316.5" cy="61.5" r="1.5" fill="#EAEAEA"/>
<circle cx="328.5" cy="61.5" r="1.5" fill="#EAEAEA"/>
<circle cx="340.5" cy="61.5" r="1.5" fill="#EAEAEA"/>
<circle cx="4.5" cy="73.5" r="1.5" fill="#EAEAEA"/>
<circle cx="16.5" cy="73.5" r="1.5" fill="#EAEAEA"/>
<circle cx="28.5" cy="73.5" r="1.5" fill="#EAEAEA"/>
<circle cx="40.5" cy="73.5" r="1.5" fill="#EAEAEA"/>
<circle cx="52.5" cy="73.5" r="1.5" fill="#EAEAEA"/>
<circle cx="64.5" cy="73.5" r="1.5" fill="#EAEAEA"/>
<circle cx="76.5" cy="73.5" r="1.5" fill="#EAEAEA"/>
<circle cx="88.5" cy="73.5" r="1.5" fill="#EAEAEA"/>
<circle cx="100.5" cy="73.5" r="1.5" fill="#EAEAEA"/>
<circle cx="112.5" cy="73.5" r="1.5" fill="#EAEAEA"/>
<circle cx="124.5" cy="73.5" r="1.5" fill="#EAEAEA"/>
<circle cx="136.5" cy="73.5" r="1.5" fill="#EAEAEA"/>
<circle cx="148.5" cy="73.5" r="1.5" fill="#EAEAEA"/>
<circle cx="160.5" cy="73.5" r="1.5" fill="#EAEAEA"/>
<circle cx="172.5" cy="73.5" r="1.5" fill="#EAEAEA"/>
<circle cx="184.5" cy="73.5" r="1.5" fill="#EAEAEA"/>
<circle cx="196.5" cy="73.5" r="1.5" fill="#EAEAEA"/>
<circle cx="208.5" cy="73.5" r="1.5" fill="#EAEAEA"/>
<circle cx="220.5" cy="73.5" r="1.5" fill="#EAEAEA"/>
<circle cx="232.5" cy="73.5" r="1.5" fill="#EAEAEA"/>
<circle cx="244.5" cy="73.5" r="1.5" fill="#EAEAEA"/>
<circle cx="256.5" cy="73.5" r="1.5" fill="#EAEAEA"/>
<circle cx="268.5" cy="73.5" r="1.5" fill="#EAEAEA"/>
<circle cx="280.5" cy="73.5" r="1.5" fill="#EAEAEA"/>
<circle cx="292.5" cy="73.5" r="1.5" fill="#EAEAEA"/>
<circle cx="304.5" cy="73.5" r="1.5" fill="#EAEAEA"/>
<circle cx="316.5" cy="73.5" r="1.5" fill="#EAEAEA"/>
<circle cx="328.5" cy="73.5" r="1.5" fill="#EAEAEA"/>
<circle cx="340.5" cy="73.5" r="1.5" fill="#EAEAEA"/>
<circle cx="4.5" cy="85.5" r="1.5" fill="#EAEAEA"/>
<circle cx="16.5" cy="85.5" r="1.5" fill="#EAEAEA"/>
<circle cx="28.5" cy="85.5" r="1.5" fill="#EAEAEA"/>
<circle cx="40.5" cy="85.5" r="1.5" fill="#EAEAEA"/>
<circle cx="52.5" cy="85.5" r="1.5" fill="#EAEAEA"/>
<circle cx="64.5" cy="85.5" r="1.5" fill="#EAEAEA"/>
<circle cx="76.5" cy="85.5" r="1.5" fill="#EAEAEA"/>
<circle cx="88.5" cy="85.5" r="1.5" fill="#EAEAEA"/>
<circle cx="100.5" cy="85.5" r="1.5" fill="#EAEAEA"/>
<circle cx="112.5" cy="85.5" r="1.5" fill="#EAEAEA"/>
<circle cx="124.5" cy="85.5" r="1.5" fill="#EAEAEA"/>
<circle cx="136.5" cy="85.5" r="1.5" fill="#EAEAEA"/>
<circle cx="148.5" cy="85.5" r="1.5" fill="#EAEAEA"/>
<circle cx="160.5" cy="85.5" r="1.5" fill="#EAEAEA"/>
<circle cx="172.5" cy="85.5" r="1.5" fill="#EAEAEA"/>
<circle cx="184.5" cy="85.5" r="1.5" fill="#EAEAEA"/>
<circle cx="196.5" cy="85.5" r="1.5" fill="#EAEAEA"/>
<circle cx="208.5" cy="85.5" r="1.5" fill="#EAEAEA"/>
<circle cx="220.5" cy="85.5" r="1.5" fill="#EAEAEA"/>
<circle cx="232.5" cy="85.5" r="1.5" fill="#EAEAEA"/>
<circle cx="244.5" cy="85.5" r="1.5" fill="#EAEAEA"/>
<circle cx="256.5" cy="85.5" r="1.5" fill="#EAEAEA"/>
<circle cx="268.5" cy="85.5" r="1.5" fill="#EAEAEA"/>
<circle cx="280.5" cy="85.5" r="1.5" fill="#EAEAEA"/>
<circle cx="292.5" cy="85.5" r="1.5" fill="#EAEAEA"/>
<circle cx="304.5" cy="85.5" r="1.5" fill="#EAEAEA"/>
<circle cx="316.5" cy="85.5" r="1.5" fill="#EAEAEA"/>
<circle cx="328.5" cy="85.5" r="1.5" fill="#EAEAEA"/>
<circle cx="340.5" cy="85.5" r="1.5" fill="#EAEAEA"/>
<circle cx="4.5" cy="97.5" r="1.5" fill="#EAEAEA"/>
<circle cx="16.5" cy="97.5" r="1.5" fill="#EAEAEA"/>
<circle cx="28.5" cy="97.5" r="1.5" fill="#EAEAEA"/>
<circle cx="40.5" cy="97.5" r="1.5" fill="#EAEAEA"/>
<circle cx="52.5" cy="97.5" r="1.5" fill="#EAEAEA"/>
<circle cx="64.5" cy="97.5" r="1.5" fill="#EAEAEA"/>
<circle cx="76.5" cy="97.5" r="1.5" fill="#EAEAEA"/>
<circle cx="88.5" cy="97.5" r="1.5" fill="#EAEAEA"/>
<circle cx="100.5" cy="97.5" r="1.5" fill="#EAEAEA"/>
<circle cx="112.5" cy="97.5" r="1.5" fill="#EAEAEA"/>
<circle cx="124.5" cy="97.5" r="1.5" fill="#EAEAEA"/>
<circle cx="136.5" cy="97.5" r="1.5" fill="#EAEAEA"/>
<circle cx="148.5" cy="97.5" r="1.5" fill="#EAEAEA"/>
<circle cx="160.5" cy="97.5" r="1.5" fill="#EAEAEA"/>
<circle cx="172.5" cy="97.5" r="1.5" fill="#EAEAEA"/>
<circle cx="184.5" cy="97.5" r="1.5" fill="#EAEAEA"/>
<circle cx="196.5" cy="97.5" r="1.5" fill="#EAEAEA"/>
<circle cx="208.5" cy="97.5" r="1.5" fill="#EAEAEA"/>
<circle cx="220.5" cy="97.5" r="1.5" fill="#EAEAEA"/>
<circle cx="232.5" cy="97.5" r="1.5" fill="#EAEAEA"/>
<circle cx="244.5" cy="97.5" r="1.5" fill="#EAEAEA"/>
<circle cx="256.5" cy="97.5" r="1.5" fill="#EAEAEA"/>
<circle cx="268.5" cy="97.5" r="1.5" fill="#EAEAEA"/>
<circle cx="280.5" cy="97.5" r="1.5" fill="#EAEAEA"/>
<circle cx="292.5" cy="97.5" r="1.5" fill="#EAEAEA"/>
<circle cx="304.5" cy="97.5" r="1.5" fill="#EAEAEA"/>
<circle cx="316.5" cy="97.5" r="1.5" fill="#EAEAEA"/>
<circle cx="328.5" cy="97.5" r="1.5" fill="#EAEAEA"/>
<circle cx="340.5" cy="97.5" r="1.5" fill="#EAEAEA"/>
<circle cx="4.5" cy="109.5" r="1.5" fill="#EAEAEA"/>
<circle cx="16.5" cy="109.5" r="1.5" fill="#EAEAEA"/>
<circle cx="28.5" cy="109.5" r="1.5" fill="#EAEAEA"/>
<circle cx="40.5" cy="109.5" r="1.5" fill="#EAEAEA"/>
<circle cx="52.5" cy="109.5" r="1.5" fill="#EAEAEA"/>
<circle cx="64.5" cy="109.5" r="1.5" fill="#EAEAEA"/>
<circle cx="76.5" cy="109.5" r="1.5" fill="#EAEAEA"/>
<circle cx="88.5" cy="109.5" r="1.5" fill="#EAEAEA"/>
<circle cx="100.5" cy="109.5" r="1.5" fill="#EAEAEA"/>
<circle cx="112.5" cy="109.5" r="1.5" fill="#EAEAEA"/>
<circle cx="124.5" cy="109.5" r="1.5" fill="#EAEAEA"/>
<circle cx="136.5" cy="109.5" r="1.5" fill="#EAEAEA"/>
<circle cx="148.5" cy="109.5" r="1.5" fill="#EAEAEA"/>
<circle cx="160.5" cy="109.5" r="1.5" fill="#EAEAEA"/>
<circle cx="172.5" cy="109.5" r="1.5" fill="#EAEAEA"/>
<circle cx="184.5" cy="109.5" r="1.5" fill="#EAEAEA"/>
<circle cx="196.5" cy="109.5" r="1.5" fill="#EAEAEA"/>
<circle cx="208.5" cy="109.5" r="1.5" fill="#EAEAEA"/>
<circle cx="220.5" cy="109.5" r="1.5" fill="#EAEAEA"/>
<circle cx="232.5" cy="109.5" r="1.5" fill="#EAEAEA"/>
<circle cx="244.5" cy="109.5" r="1.5" fill="#EAEAEA"/>
<circle cx="256.5" cy="109.5" r="1.5" fill="#EAEAEA"/>
<circle cx="268.5" cy="109.5" r="1.5" fill="#EAEAEA"/>
<circle cx="280.5" cy="109.5" r="1.5" fill="#EAEAEA"/>
<circle cx="292.5" cy="109.5" r="1.5" fill="#EAEAEA"/>
<circle cx="304.5" cy="109.5" r="1.5" fill="#EAEAEA"/>
<circle cx="316.5" cy="109.5" r="1.5" fill="#EAEAEA"/>
<circle cx="328.5" cy="109.5" r="1.5" fill="#EAEAEA"/>
<circle cx="340.5" cy="109.5" r="1.5" fill="#EAEAEA"/>
<circle cx="4.5" cy="121.5" r="1.5" fill="#EAEAEA"/>
<circle cx="16.5" cy="121.5" r="1.5" fill="#EAEAEA"/>
<circle cx="28.5" cy="121.5" r="1.5" fill="#EAEAEA"/>
<circle cx="40.5" cy="121.5" r="1.5" fill="#EAEAEA"/>
<circle cx="52.5" cy="121.5" r="1.5" fill="#EAEAEA"/>
<circle cx="64.5" cy="121.5" r="1.5" fill="#EAEAEA"/>
<circle cx="76.5" cy="121.5" r="1.5" fill="#EAEAEA"/>
<circle cx="88.5" cy="121.5" r="1.5" fill="#EAEAEA"/>
<circle cx="100.5" cy="121.5" r="1.5" fill="#EAEAEA"/>
<circle cx="112.5" cy="121.5" r="1.5" fill="#EAEAEA"/>
<circle cx="124.5" cy="121.5" r="1.5" fill="#EAEAEA"/>
<circle cx="136.5" cy="121.5" r="1.5" fill="#EAEAEA"/>
<circle cx="148.5" cy="121.5" r="1.5" fill="#EAEAEA"/>
<circle cx="160.5" cy="121.5" r="1.5" fill="#EAEAEA"/>
<circle cx="172.5" cy="121.5" r="1.5" fill="#EAEAEA"/>
<circle cx="184.5" cy="121.5" r="1.5" fill="#EAEAEA"/>
<circle cx="196.5" cy="121.5" r="1.5" fill="#EAEAEA"/>
<circle cx="208.5" cy="121.5" r="1.5" fill="#EAEAEA"/>
<circle cx="220.5" cy="121.5" r="1.5" fill="#EAEAEA"/>
<circle cx="232.5" cy="121.5" r="1.5" fill="#EAEAEA"/>
<circle cx="244.5" cy="121.5" r="1.5" fill="#EAEAEA"/>
<circle cx="256.5" cy="121.5" r="1.5" fill="#EAEAEA"/>
<circle cx="268.5" cy="121.5" r="1.5" fill="#EAEAEA"/>
<circle cx="280.5" cy="121.5" r="1.5" fill="#EAEAEA"/>
<circle cx="292.5" cy="121.5" r="1.5" fill="#EAEAEA"/>
<circle cx="304.5" cy="121.5" r="1.5" fill="#EAEAEA"/>
<circle cx="316.5" cy="121.5" r="1.5" fill="#EAEAEA"/>
<circle cx="328.5" cy="121.5" r="1.5" fill="#EAEAEA"/>
<circle cx="340.5" cy="121.5" r="1.5" fill="#EAEAEA"/>
<circle cx="4.5" cy="133.5" r="1.5" fill="#EAEAEA"/>
<circle cx="16.5" cy="133.5" r="1.5" fill="#EAEAEA"/>
<circle cx="28.5" cy="133.5" r="1.5" fill="#EAEAEA"/>
<circle cx="40.5" cy="133.5" r="1.5" fill="#EAEAEA"/>
<circle cx="52.5" cy="133.5" r="1.5" fill="#EAEAEA"/>
<circle cx="64.5" cy="133.5" r="1.5" fill="#EAEAEA"/>
<circle cx="76.5" cy="133.5" r="1.5" fill="#EAEAEA"/>
<circle cx="88.5" cy="133.5" r="1.5" fill="#EAEAEA"/>
<circle cx="100.5" cy="133.5" r="1.5" fill="#EAEAEA"/>
<circle cx="112.5" cy="133.5" r="1.5" fill="#EAEAEA"/>
<circle cx="124.5" cy="133.5" r="1.5" fill="#EAEAEA"/>
<circle cx="136.5" cy="133.5" r="1.5" fill="#EAEAEA"/>
<circle cx="148.5" cy="133.5" r="1.5" fill="#EAEAEA"/>
<circle cx="160.5" cy="133.5" r="1.5" fill="#EAEAEA"/>
<circle cx="172.5" cy="133.5" r="1.5" fill="#EAEAEA"/>
<circle cx="184.5" cy="133.5" r="1.5" fill="#EAEAEA"/>
<circle cx="196.5" cy="133.5" r="1.5" fill="#EAEAEA"/>
<circle cx="208.5" cy="133.5" r="1.5" fill="#EAEAEA"/>
<circle cx="220.5" cy="133.5" r="1.5" fill="#EAEAEA"/>
<circle cx="232.5" cy="133.5" r="1.5" fill="#EAEAEA"/>
<circle cx="244.5" cy="133.5" r="1.5" fill="#EAEAEA"/>
<circle cx="256.5" cy="133.5" r="1.5" fill="#EAEAEA"/>
<circle cx="268.5" cy="133.5" r="1.5" fill="#EAEAEA"/>
<circle cx="280.5" cy="133.5" r="1.5" fill="#EAEAEA"/>
<circle cx="292.5" cy="133.5" r="1.5" fill="#EAEAEA"/>
<circle cx="304.5" cy="133.5" r="1.5" fill="#EAEAEA"/>
<circle cx="316.5" cy="133.5" r="1.5" fill="#EAEAEA"/>
<circle cx="328.5" cy="133.5" r="1.5" fill="#EAEAEA"/>
<circle cx="340.5" cy="133.5" r="1.5" fill="#EAEAEA"/>
<circle cx="4.5" cy="145.5" r="1.5" fill="#EAEAEA"/>
<circle cx="16.5" cy="145.5" r="1.5" fill="#EAEAEA"/>
<circle cx="28.5" cy="145.5" r="1.5" fill="#EAEAEA"/>
<circle cx="40.5" cy="145.5" r="1.5" fill="#EAEAEA"/>
<circle cx="52.5" cy="145.5" r="1.5" fill="#EAEAEA"/>
<circle cx="64.5" cy="145.5" r="1.5" fill="#EAEAEA"/>
<circle cx="76.5" cy="145.5" r="1.5" fill="#EAEAEA"/>
<circle cx="88.5" cy="145.5" r="1.5" fill="#EAEAEA"/>
<circle cx="100.5" cy="145.5" r="1.5" fill="#EAEAEA"/>
<circle cx="112.5" cy="145.5" r="1.5" fill="#EAEAEA"/>
<circle cx="124.5" cy="145.5" r="1.5" fill="#EAEAEA"/>
<circle cx="136.5" cy="145.5" r="1.5" fill="#EAEAEA"/>
<circle cx="148.5" cy="145.5" r="1.5" fill="#EAEAEA"/>
<circle cx="160.5" cy="145.5" r="1.5" fill="#EAEAEA"/>
<circle cx="172.5" cy="145.5" r="1.5" fill="#EAEAEA"/>
<circle cx="184.5" cy="145.5" r="1.5" fill="#EAEAEA"/>
<circle cx="196.5" cy="145.5" r="1.5" fill="#EAEAEA"/>
<circle cx="208.5" cy="145.5" r="1.5" fill="#EAEAEA"/>
<circle cx="220.5" cy="145.5" r="1.5" fill="#EAEAEA"/>
<circle cx="232.5" cy="145.5" r="1.5" fill="#EAEAEA"/>
<circle cx="244.5" cy="145.5" r="1.5" fill="#EAEAEA"/>
<circle cx="256.5" cy="145.5" r="1.5" fill="#EAEAEA"/>
<circle cx="268.5" cy="145.5" r="1.5" fill="#EAEAEA"/>
<circle cx="280.5" cy="145.5" r="1.5" fill="#EAEAEA"/>
<circle cx="292.5" cy="145.5" r="1.5" fill="#EAEAEA"/>
<circle cx="304.5" cy="145.5" r="1.5" fill="#EAEAEA"/>
<circle cx="316.5" cy="145.5" r="1.5" fill="#EAEAEA"/>
<circle cx="328.5" cy="145.5" r="1.5" fill="#EAEAEA"/>
<circle cx="340.5" cy="145.5" r="1.5" fill="#EAEAEA"/>
<circle cx="4.5" cy="157.5" r="1.5" fill="#EAEAEA"/>
<circle cx="16.5" cy="157.5" r="1.5" fill="#EAEAEA"/>
<circle cx="28.5" cy="157.5" r="1.5" fill="#EAEAEA"/>
<circle cx="40.5" cy="157.5" r="1.5" fill="#EAEAEA"/>
<circle cx="52.5" cy="157.5" r="1.5" fill="#EAEAEA"/>
<circle cx="64.5" cy="157.5" r="1.5" fill="#EAEAEA"/>
<circle cx="76.5" cy="157.5" r="1.5" fill="#EAEAEA"/>
<circle cx="88.5" cy="157.5" r="1.5" fill="#EAEAEA"/>
<circle cx="100.5" cy="157.5" r="1.5" fill="#EAEAEA"/>
<circle cx="112.5" cy="157.5" r="1.5" fill="#EAEAEA"/>
<circle cx="124.5" cy="157.5" r="1.5" fill="#EAEAEA"/>
<circle cx="136.5" cy="157.5" r="1.5" fill="#EAEAEA"/>
<circle cx="148.5" cy="157.5" r="1.5" fill="#EAEAEA"/>
<circle cx="160.5" cy="157.5" r="1.5" fill="#EAEAEA"/>
<circle cx="172.5" cy="157.5" r="1.5" fill="#EAEAEA"/>
<circle cx="184.5" cy="157.5" r="1.5" fill="#EAEAEA"/>
<circle cx="196.5" cy="157.5" r="1.5" fill="#EAEAEA"/>
<circle cx="208.5" cy="157.5" r="1.5" fill="#EAEAEA"/>
<circle cx="220.5" cy="157.5" r="1.5" fill="#EAEAEA"/>
<circle cx="232.5" cy="157.5" r="1.5" fill="#EAEAEA"/>
<circle cx="244.5" cy="157.5" r="1.5" fill="#EAEAEA"/>
<circle cx="256.5" cy="157.5" r="1.5" fill="#EAEAEA"/>
<circle cx="268.5" cy="157.5" r="1.5" fill="#EAEAEA"/>
<circle cx="280.5" cy="157.5" r="1.5" fill="#EAEAEA"/>
<circle cx="292.5" cy="157.5" r="1.5" fill="#EAEAEA"/>
<circle cx="304.5" cy="157.5" r="1.5" fill="#EAEAEA"/>
<circle cx="316.5" cy="157.5" r="1.5" fill="#EAEAEA"/>
<circle cx="328.5" cy="157.5" r="1.5" fill="#EAEAEA"/>
<circle cx="340.5" cy="157.5" r="1.5" fill="#EAEAEA"/>
<circle cx="4.5" cy="169.5" r="1.5" fill="#EAEAEA"/>
<circle cx="16.5" cy="169.5" r="1.5" fill="#EAEAEA"/>
<circle cx="28.5" cy="169.5" r="1.5" fill="#EAEAEA"/>
<circle cx="40.5" cy="169.5" r="1.5" fill="#EAEAEA"/>
<circle cx="52.5" cy="169.5" r="1.5" fill="#EAEAEA"/>
<circle cx="64.5" cy="169.5" r="1.5" fill="#EAEAEA"/>
<circle cx="76.5" cy="169.5" r="1.5" fill="#EAEAEA"/>
<circle cx="88.5" cy="169.5" r="1.5" fill="#EAEAEA"/>
<circle cx="100.5" cy="169.5" r="1.5" fill="#EAEAEA"/>
<circle cx="112.5" cy="169.5" r="1.5" fill="#EAEAEA"/>
<circle cx="124.5" cy="169.5" r="1.5" fill="#EAEAEA"/>
<circle cx="136.5" cy="169.5" r="1.5" fill="#EAEAEA"/>
<circle cx="148.5" cy="169.5" r="1.5" fill="#EAEAEA"/>
<circle cx="160.5" cy="169.5" r="1.5" fill="#EAEAEA"/>
<circle cx="172.5" cy="169.5" r="1.5" fill="#EAEAEA"/>
<circle cx="184.5" cy="169.5" r="1.5" fill="#EAEAEA"/>
<circle cx="196.5" cy="169.5" r="1.5" fill="#EAEAEA"/>
<circle cx="208.5" cy="169.5" r="1.5" fill="#EAEAEA"/>
<circle cx="220.5" cy="169.5" r="1.5" fill="#EAEAEA"/>
<circle cx="232.5" cy="169.5" r="1.5" fill="#EAEAEA"/>
<circle cx="244.5" cy="169.5" r="1.5" fill="#EAEAEA"/>
<circle cx="256.5" cy="169.5" r="1.5" fill="#EAEAEA"/>
<circle cx="268.5" cy="169.5" r="1.5" fill="#EAEAEA"/>
<circle cx="280.5" cy="169.5" r="1.5" fill="#EAEAEA"/>
<circle cx="292.5" cy="169.5" r="1.5" fill="#EAEAEA"/>
<circle cx="304.5" cy="169.5" r="1.5" fill="#EAEAEA"/>
<circle cx="316.5" cy="169.5" r="1.5" fill="#EAEAEA"/>
<circle cx="328.5" cy="169.5" r="1.5" fill="#EAEAEA"/>
<circle cx="340.5" cy="169.5" r="1.5" fill="#EAEAEA"/>
<circle cx="4.5" cy="181.5" r="1.5" fill="#EAEAEA"/>
<circle cx="16.5" cy="181.5" r="1.5" fill="#EAEAEA"/>
<circle cx="28.5" cy="181.5" r="1.5" fill="#EAEAEA"/>
<circle cx="40.5" cy="181.5" r="1.5" fill="#EAEAEA"/>
<circle cx="52.5" cy="181.5" r="1.5" fill="#EAEAEA"/>
<circle cx="64.5" cy="181.5" r="1.5" fill="#EAEAEA"/>
<circle cx="76.5" cy="181.5" r="1.5" fill="#EAEAEA"/>
<circle cx="88.5" cy="181.5" r="1.5" fill="#EAEAEA"/>
<circle cx="100.5" cy="181.5" r="1.5" fill="#EAEAEA"/>
<circle cx="112.5" cy="181.5" r="1.5" fill="#EAEAEA"/>
<circle cx="124.5" cy="181.5" r="1.5" fill="#EAEAEA"/>
<circle cx="136.5" cy="181.5" r="1.5" fill="#EAEAEA"/>
<circle cx="148.5" cy="181.5" r="1.5" fill="#EAEAEA"/>
<circle cx="160.5" cy="181.5" r="1.5" fill="#EAEAEA"/>
<circle cx="172.5" cy="181.5" r="1.5" fill="#EAEAEA"/>
<circle cx="184.5" cy="181.5" r="1.5" fill="#EAEAEA"/>
<circle cx="196.5" cy="181.5" r="1.5" fill="#EAEAEA"/>
<circle cx="208.5" cy="181.5" r="1.5" fill="#EAEAEA"/>
<circle cx="220.5" cy="181.5" r="1.5" fill="#EAEAEA"/>
<circle cx="232.5" cy="181.5" r="1.5" fill="#EAEAEA"/>
<circle cx="244.5" cy="181.5" r="1.5" fill="#EAEAEA"/>
<circle cx="256.5" cy="181.5" r="1.5" fill="#EAEAEA"/>
<circle cx="268.5" cy="181.5" r="1.5" fill="#EAEAEA"/>
<circle cx="280.5" cy="181.5" r="1.5" fill="#EAEAEA"/>
<circle cx="292.5" cy="181.5" r="1.5" fill="#EAEAEA"/>
<circle cx="304.5" cy="181.5" r="1.5" fill="#EAEAEA"/>
<circle cx="316.5" cy="181.5" r="1.5" fill="#EAEAEA"/>
<circle cx="328.5" cy="181.5" r="1.5" fill="#EAEAEA"/>
<circle cx="340.5" cy="181.5" r="1.5" fill="#EAEAEA"/>
<circle cx="4.5" cy="193.5" r="1.5" fill="#EAEAEA"/>
<circle cx="16.5" cy="193.5" r="1.5" fill="#EAEAEA"/>
<circle cx="28.5" cy="193.5" r="1.5" fill="#EAEAEA"/>
<circle cx="40.5" cy="193.5" r="1.5" fill="#EAEAEA"/>
<circle cx="52.5" cy="193.5" r="1.5" fill="#EAEAEA"/>
<circle cx="64.5" cy="193.5" r="1.5" fill="#EAEAEA"/>
<circle cx="76.5" cy="193.5" r="1.5" fill="#EAEAEA"/>
<circle cx="88.5" cy="193.5" r="1.5" fill="#EAEAEA"/>
<circle cx="100.5" cy="193.5" r="1.5" fill="#EAEAEA"/>
<circle cx="112.5" cy="193.5" r="1.5" fill="#EAEAEA"/>
<circle cx="124.5" cy="193.5" r="1.5" fill="#EAEAEA"/>
<circle cx="136.5" cy="193.5" r="1.5" fill="#EAEAEA"/>
<circle cx="148.5" cy="193.5" r="1.5" fill="#EAEAEA"/>
<circle cx="160.5" cy="193.5" r="1.5" fill="#EAEAEA"/>
<circle cx="172.5" cy="193.5" r="1.5" fill="#EAEAEA"/>
<circle cx="184.5" cy="193.5" r="1.5" fill="#EAEAEA"/>
<circle cx="196.5" cy="193.5" r="1.5" fill="#EAEAEA"/>
<circle cx="208.5" cy="193.5" r="1.5" fill="#EAEAEA"/>
<circle cx="220.5" cy="193.5" r="1.5" fill="#EAEAEA"/>
<circle cx="232.5" cy="193.5" r="1.5" fill="#EAEAEA"/>
<circle cx="244.5" cy="193.5" r="1.5" fill="#EAEAEA"/>
<circle cx="256.5" cy="193.5" r="1.5" fill="#EAEAEA"/>
<circle cx="268.5" cy="193.5" r="1.5" fill="#EAEAEA"/>
<circle cx="280.5" cy="193.5" r="1.5" fill="#EAEAEA"/>
<circle cx="292.5" cy="193.5" r="1.5" fill="#EAEAEA"/>
<circle cx="304.5" cy="193.5" r="1.5" fill="#EAEAEA"/>
<circle cx="316.5" cy="193.5" r="1.5" fill="#EAEAEA"/>
<circle cx="328.5" cy="193.5" r="1.5" fill="#EAEAEA"/>
<circle cx="340.5" cy="193.5" r="1.5" fill="#EAEAEA"/>
<circle cx="4.5" cy="205.5" r="1.5" fill="#EAEAEA"/>
<circle cx="16.5" cy="205.5" r="1.5" fill="#EAEAEA"/>
<circle cx="28.5" cy="205.5" r="1.5" fill="#EAEAEA"/>
<circle cx="40.5" cy="205.5" r="1.5" fill="#EAEAEA"/>
<circle cx="52.5" cy="205.5" r="1.5" fill="#EAEAEA"/>
<circle cx="64.5" cy="205.5" r="1.5" fill="#EAEAEA"/>
<circle cx="76.5" cy="205.5" r="1.5" fill="#EAEAEA"/>
<circle cx="88.5" cy="205.5" r="1.5" fill="#EAEAEA"/>
<circle cx="100.5" cy="205.5" r="1.5" fill="#EAEAEA"/>
<circle cx="112.5" cy="205.5" r="1.5" fill="#EAEAEA"/>
<circle cx="124.5" cy="205.5" r="1.5" fill="#EAEAEA"/>
<circle cx="136.5" cy="205.5" r="1.5" fill="#EAEAEA"/>
<circle cx="148.5" cy="205.5" r="1.5" fill="#EAEAEA"/>
<circle cx="160.5" cy="205.5" r="1.5" fill="#EAEAEA"/>
<circle cx="172.5" cy="205.5" r="1.5" fill="#EAEAEA"/>
<circle cx="184.5" cy="205.5" r="1.5" fill="#EAEAEA"/>
<circle cx="196.5" cy="205.5" r="1.5" fill="#EAEAEA"/>
<circle cx="208.5" cy="205.5" r="1.5" fill="#EAEAEA"/>
<circle cx="220.5" cy="205.5" r="1.5" fill="#EAEAEA"/>
<circle cx="232.5" cy="205.5" r="1.5" fill="#EAEAEA"/>
<circle cx="244.5" cy="205.5" r="1.5" fill="#EAEAEA"/>
<circle cx="256.5" cy="205.5" r="1.5" fill="#EAEAEA"/>
<circle cx="268.5" cy="205.5" r="1.5" fill="#EAEAEA"/>
<circle cx="280.5" cy="205.5" r="1.5" fill="#EAEAEA"/>
<circle cx="292.5" cy="205.5" r="1.5" fill="#EAEAEA"/>
<circle cx="304.5" cy="205.5" r="1.5" fill="#EAEAEA"/>
<circle cx="316.5" cy="205.5" r="1.5" fill="#EAEAEA"/>
<circle cx="328.5" cy="205.5" r="1.5" fill="#EAEAEA"/>
<circle cx="340.5" cy="205.5" r="1.5" fill="#EAEAEA"/>
<circle cx="4.5" cy="217.5" r="1.5" fill="#EAEAEA"/>
<circle cx="16.5" cy="217.5" r="1.5" fill="#EAEAEA"/>
<circle cx="28.5" cy="217.5" r="1.5" fill="#EAEAEA"/>
<circle cx="40.5" cy="217.5" r="1.5" fill="#EAEAEA"/>
<circle cx="52.5" cy="217.5" r="1.5" fill="#EAEAEA"/>
<circle cx="64.5" cy="217.5" r="1.5" fill="#EAEAEA"/>
<circle cx="76.5" cy="217.5" r="1.5" fill="#EAEAEA"/>
<circle cx="88.5" cy="217.5" r="1.5" fill="#EAEAEA"/>
<circle cx="100.5" cy="217.5" r="1.5" fill="#EAEAEA"/>
<circle cx="112.5" cy="217.5" r="1.5" fill="#EAEAEA"/>
<circle cx="124.5" cy="217.5" r="1.5" fill="#EAEAEA"/>
<circle cx="136.5" cy="217.5" r="1.5" fill="#EAEAEA"/>
<circle cx="148.5" cy="217.5" r="1.5" fill="#EAEAEA"/>
<circle cx="160.5" cy="217.5" r="1.5" fill="#EAEAEA"/>
<circle cx="172.5" cy="217.5" r="1.5" fill="#EAEAEA"/>
<circle cx="184.5" cy="217.5" r="1.5" fill="#EAEAEA"/>
<circle cx="196.5" cy="217.5" r="1.5" fill="#EAEAEA"/>
<circle cx="208.5" cy="217.5" r="1.5" fill="#EAEAEA"/>
<circle cx="220.5" cy="217.5" r="1.5" fill="#EAEAEA"/>
<circle cx="232.5" cy="217.5" r="1.5" fill="#EAEAEA"/>
<circle cx="244.5" cy="217.5" r="1.5" fill="#EAEAEA"/>
<circle cx="256.5" cy="217.5" r="1.5" fill="#EAEAEA"/>
<circle cx="268.5" cy="217.5" r="1.5" fill="#EAEAEA"/>
<circle cx="280.5" cy="217.5" r="1.5" fill="#EAEAEA"/>
<circle cx="292.5" cy="217.5" r="1.5" fill="#EAEAEA"/>
<circle cx="304.5" cy="217.5" r="1.5" fill="#EAEAEA"/>
<circle cx="316.5" cy="217.5" r="1.5" fill="#EAEAEA"/>
<circle cx="328.5" cy="217.5" r="1.5" fill="#EAEAEA"/>
<circle cx="340.5" cy="217.5" r="1.5" fill="#EAEAEA"/>
<circle cx="4.5" cy="229.5" r="1.5" fill="#EAEAEA"/>
<circle cx="16.5" cy="229.5" r="1.5" fill="#EAEAEA"/>
<circle cx="28.5" cy="229.5" r="1.5" fill="#EAEAEA"/>
<circle cx="40.5" cy="229.5" r="1.5" fill="#EAEAEA"/>
<circle cx="52.5" cy="229.5" r="1.5" fill="#EAEAEA"/>
<circle cx="64.5" cy="229.5" r="1.5" fill="#EAEAEA"/>
<circle cx="76.5" cy="229.5" r="1.5" fill="#EAEAEA"/>
<circle cx="88.5" cy="229.5" r="1.5" fill="#EAEAEA"/>
<circle cx="100.5" cy="229.5" r="1.5" fill="#EAEAEA"/>
<circle cx="112.5" cy="229.5" r="1.5" fill="#EAEAEA"/>
<circle cx="124.5" cy="229.5" r="1.5" fill="#EAEAEA"/>
<circle cx="136.5" cy="229.5" r="1.5" fill="#EAEAEA"/>
<circle cx="148.5" cy="229.5" r="1.5" fill="#EAEAEA"/>
<circle cx="160.5" cy="229.5" r="1.5" fill="#EAEAEA"/>
<circle cx="172.5" cy="229.5" r="1.5" fill="#EAEAEA"/>
<circle cx="184.5" cy="229.5" r="1.5" fill="#EAEAEA"/>
<circle cx="196.5" cy="229.5" r="1.5" fill="#EAEAEA"/>
<circle cx="208.5" cy="229.5" r="1.5" fill="#EAEAEA"/>
<circle cx="220.5" cy="229.5" r="1.5" fill="#EAEAEA"/>
<circle cx="232.5" cy="229.5" r="1.5" fill="#EAEAEA"/>
<circle cx="244.5" cy="229.5" r="1.5" fill="#EAEAEA"/>
<circle cx="256.5" cy="229.5" r="1.5" fill="#EAEAEA"/>
<circle cx="268.5" cy="229.5" r="1.5" fill="#EAEAEA"/>
<circle cx="280.5" cy="229.5" r="1.5" fill="#EAEAEA"/>
<circle cx="292.5" cy="229.5" r="1.5" fill="#EAEAEA"/>
<circle cx="304.5" cy="229.5" r="1.5" fill="#EAEAEA"/>
<circle cx="316.5" cy="229.5" r="1.5" fill="#EAEAEA"/>
<circle cx="328.5" cy="229.5" r="1.5" fill="#EAEAEA"/>
<circle cx="340.5" cy="229.5" r="1.5" fill="#EAEAEA"/>
<circle cx="4.5" cy="241.5" r="1.5" fill="#EAEAEA"/>
<circle cx="16.5" cy="241.5" r="1.5" fill="#EAEAEA"/>
<circle cx="28.5" cy="241.5" r="1.5" fill="#EAEAEA"/>
<circle cx="40.5" cy="241.5" r="1.5" fill="#EAEAEA"/>
<circle cx="52.5" cy="241.5" r="1.5" fill="#EAEAEA"/>
<circle cx="64.5" cy="241.5" r="1.5" fill="#EAEAEA"/>
<circle cx="76.5" cy="241.5" r="1.5" fill="#EAEAEA"/>
<circle cx="88.5" cy="241.5" r="1.5" fill="#EAEAEA"/>
<circle cx="100.5" cy="241.5" r="1.5" fill="#EAEAEA"/>
<circle cx="112.5" cy="241.5" r="1.5" fill="#EAEAEA"/>
<circle cx="124.5" cy="241.5" r="1.5" fill="#EAEAEA"/>
<circle cx="136.5" cy="241.5" r="1.5" fill="#EAEAEA"/>
<circle cx="148.5" cy="241.5" r="1.5" fill="#EAEAEA"/>
<circle cx="160.5" cy="241.5" r="1.5" fill="#EAEAEA"/>
<circle cx="172.5" cy="241.5" r="1.5" fill="#EAEAEA"/>
<circle cx="184.5" cy="241.5" r="1.5" fill="#EAEAEA"/>
<circle cx="196.5" cy="241.5" r="1.5" fill="#EAEAEA"/>
<circle cx="208.5" cy="241.5" r="1.5" fill="#EAEAEA"/>
<circle cx="220.5" cy="241.5" r="1.5" fill="#EAEAEA"/>
<circle cx="232.5" cy="241.5" r="1.5" fill="#EAEAEA"/>
<circle cx="244.5" cy="241.5" r="1.5" fill="#EAEAEA"/>
<circle cx="256.5" cy="241.5" r="1.5" fill="#EAEAEA"/>
<circle cx="268.5" cy="241.5" r="1.5" fill="#EAEAEA"/>
<circle cx="280.5" cy="241.5" r="1.5" fill="#EAEAEA"/>
<circle cx="292.5" cy="241.5" r="1.5" fill="#EAEAEA"/>
<circle cx="304.5" cy="241.5" r="1.5" fill="#EAEAEA"/>
<circle cx="316.5" cy="241.5" r="1.5" fill="#EAEAEA"/>
<circle cx="328.5" cy="241.5" r="1.5" fill="#EAEAEA"/>
<circle cx="340.5" cy="241.5" r="1.5" fill="#EAEAEA"/>
</g>
<defs>
<clipPath id="clip0_254_1808">
<rect width="360" height="243" fill="white" transform="translate(-9)"/>
</clipPath>
</defs>
</svg>
